  0
SECTION
  2
HEADER
  9
$ANGBASE
  50
0.0
  9
$ANGDIR
  70
  1
  9
$MEASUREMENT
  70
0
  0
ENDSEC
  0
SECTION
  2
TABLES
  0
TABLE
  2
LTYPE
  70
4
  0
LTYPE
  5
40F
  2
CONTINUOUS
  70
0
  3
Solid line
  72
65
  73
0
  40
0.0
  0
LTYPE
  5
410
  2
DASHDOT
 70
0
  3
Dash Dot ____ _ ____ _
 72
65
 73
4
 40
2.0
 49
1.25
 49
-0.25
 49
0.25
 49
-0.25
  0
LTYPE
  5
411
  2
DASHED
 70
0
  3
Dashed __ __ __ __ __
 72
65
 73
2
 40
0.75
 49
0.5
 49
-0.25
  0
LTYPE
  5
43B
  2
DOTTED
 70
0
  3
Dotted .  .  .  .
 72
65
 73
2
 40
0.2
 49
0.0
 49
-0.2
  0
ENDTAB
  0
TABLE
  2
STYLE
  70
4
  0
STYLE
  2
KICAD
  70
0
  40
0
  41
1
  42
1
  50
0
  71
0
  3
isocp.shx
  0
STYLE
  2
KICADB
  70
0
  40
0
  41
1
  42
1
  50
0
  71
0
  3
isocp.shx
  0
STYLE
  2
KICADI
  70
0
  40
0
  41
1
  42
1
  50
15
  71
0
  3
isocp.shx
  0
STYLE
  2
KICADBI
  70
0
  40
0
  41
1
  42
1
  50
15
  71
0
  3
isocp.shx
  0
ENDTAB
  0
TABLE
  2
LAYER
  70
30
  0
LAYER
  2
BLACK
  70
0
  62
7
  6
CONTINUOUS
  0
LAYER
  2
GRAY1
  70
0
  62
251
  6
CONTINUOUS
  0
LAYER
  2
GRAY2
  70
0
  62
8
  6
CONTINUOUS
  0
LAYER
  2
GRAY3
  70
0
  62
9
  6
CONTINUOUS
  0
LAYER
  2
WHITE
  70
0
  62
7
  6
CONTINUOUS
  0
LAYER
  2
LYELLOW
  70
0
  62
51
  6
CONTINUOUS
  0
LAYER
  2
BLUE1
  70
0
  62
178
  6
CONTINUOUS
  0
LAYER
  2
GREEN1
  70
0
  62
98
  6
CONTINUOUS
  0
LAYER
  2
CYAN1
  70
0
  62
138
  6
CONTINUOUS
  0
LAYER
  2
RED1
  70
0
  62
18
  6
CONTINUOUS
  0
LAYER
  2
MAGENTA1
  70
0
  62
228
  6
CONTINUOUS
  0
LAYER
  2
BROWN1
  70
0
  62
58
  6
CONTINUOUS
  0
LAYER
  2
BLUE2
  70
0
  62
5
  6
CONTINUOUS
  0
LAYER
  2
GREEN2
  70
0
  62
3
  6
CONTINUOUS
  0
LAYER
  2
CYAN2
  70
0
  62
4
  6
CONTINUOUS
  0
LAYER
  2
RED2
  70
0
  62
1
  6
CONTINUOUS
  0
LAYER
  2
MAGENTA2
  70
0
  62
6
  6
CONTINUOUS
  0
LAYER
  2
BROWN2
  70
0
  62
54
  6
CONTINUOUS
  0
LAYER
  2
BLUE3
  70
0
  62
171
  6
CONTINUOUS
  0
LAYER
  2
GREEN3
  70
0
  62
91
  6
CONTINUOUS
  0
LAYER
  2
CYAN3
  70
0
  62
131
  6
CONTINUOUS
  0
LAYER
  2
RED3
  70
0
  62
11
  6
CONTINUOUS
  0
LAYER
  2
MAGENTA3
  70
0
  62
221
  6
CONTINUOUS
  0
LAYER
  2
YELLOW3
  70
0
  62
2
  6
CONTINUOUS
  0
LAYER
  2
BLUE4
  70
0
  62
5
  6
CONTINUOUS
  0
LAYER
  2
GREEN4
  70
0
  62
3
  6
CONTINUOUS
  0
LAYER
  2
CYAN4
  70
0
  62
4
  6
CONTINUOUS
  0
LAYER
  2
RED4
  70
0
  62
1
  6
CONTINUOUS
  0
LAYER
  2
MAGENTA4
  70
0
  62
6
  6
CONTINUOUS
  0
LAYER
  2
YELLOW4
  70
0
  62
2
  6
CONTINUOUS
  0
ENDTAB
  0
ENDSEC
  0
SECTION
  2
ENTITIES
0
LINE
8
BLACK
6
CONTINUOUS
10
163.175
20
-51.372
11
163.19
21
-51.3734
0
LINE
8
BLACK
6
CONTINUOUS
10
163.19
20
-51.3734
11
163.208
21
-51.3792
0
LINE
8
BLACK
6
CONTINUOUS
10
163.208
20
-51.3792
11
163.226
21
-51.3885
0
LINE
8
BLACK
6
CONTINUOUS
10
163.226
20
-51.3885
11
163.241
21
-51.4009
0
LINE
8
BLACK
6
CONTINUOUS
10
163.241
20
-51.4009
11
163.254
21
-51.4162
0
LINE
8
BLACK
6
CONTINUOUS
10
163.254
20
-51.4162
11
163.263
21
-51.4335
0
LINE
8
BLACK
6
CONTINUOUS
10
163.263
20
-51.4335
11
163.269
21
-51.4524
0
LINE
8
BLACK
6
CONTINUOUS
10
163.269
20
-51.4524
11
163.27
21
-51.472
0
LINE
8
BLACK
6
CONTINUOUS
10
163.27
20
-51.472
11
163.27
21
-51.4769
0
LINE
8
BLACK
6
CONTINUOUS
10
163.27
20
-51.4769
11
163.27
21
-62.04
0
LINE
8
BLACK
6
CONTINUOUS
10
163.27
20
-62.04
11
173.833
21
-62.04
0
LINE
8
BLACK
6
CONTINUOUS
10
173.833
20
-62.04
11
173.838
21
-62.0395
0
LINE
8
BLACK
6
CONTINUOUS
10
173.838
20
-62.0395
11
173.843
21
-62.04
0
LINE
8
BLACK
6
CONTINUOUS
10
173.843
20
-62.04
11
173.858
21
-62.0414
0
LINE
8
BLACK
6
CONTINUOUS
10
173.858
20
-62.0414
11
173.876
21
-62.0472
0
LINE
8
BLACK
6
CONTINUOUS
10
173.876
20
-62.0472
11
173.894
21
-62.0565
0
LINE
8
BLACK
6
CONTINUOUS
10
173.894
20
-62.0565
11
173.909
21
-62.0689
0
LINE
8
BLACK
6
CONTINUOUS
10
173.909
20
-62.0689
11
173.922
21
-62.0842
0
LINE
8
BLACK
6
CONTINUOUS
10
173.922
20
-62.0842
11
173.931
21
-62.1015
0
LINE
8
BLACK
6
CONTINUOUS
10
173.931
20
-62.1015
11
173.937
21
-62.1204
0
LINE
8
BLACK
6
CONTINUOUS
10
173.937
20
-62.1204
11
173.938
21
-62.14
0
LINE
8
BLACK
6
CONTINUOUS
10
173.938
20
-62.14
11
173.938
21
-62.1449
0
LINE
8
BLACK
6
CONTINUOUS
10
173.938
20
-62.1449
11
173.938
21
-94.3169
0
LINE
8
BLACK
6
CONTINUOUS
10
173.938
20
-94.3169
11
173.938
21
-94.3218
0
LINE
8
BLACK
6
CONTINUOUS
10
173.938
20
-94.3218
11
173.937
21
-94.3414
0
LINE
8
BLACK
6
CONTINUOUS
10
173.937
20
-94.3414
11
173.931
21
-94.3603
0
LINE
8
BLACK
6
CONTINUOUS
10
173.931
20
-94.3603
11
173.922
21
-94.3776
0
LINE
8
BLACK
6
CONTINUOUS
10
173.922
20
-94.3776
11
173.909
21
-94.3929
0
LINE
8
BLACK
6
CONTINUOUS
10
173.909
20
-94.3929
11
173.894
21
-94.4053
0
LINE
8
BLACK
6
CONTINUOUS
10
173.894
20
-94.4053
11
173.876
21
-94.4146
0
LINE
8
BLACK
6
CONTINUOUS
10
173.876
20
-94.4146
11
173.858
21
-94.4204
0
LINE
8
BLACK
6
CONTINUOUS
10
173.858
20
-94.4204
11
173.843
21
-94.4218
0
LINE
8
BLACK
6
CONTINUOUS
10
173.843
20
-94.4218
11
173.838
21
-94.4223
0
LINE
8
BLACK
6
CONTINUOUS
10
173.838
20
-94.4223
11
173.833
21
-94.4218
0
LINE
8
BLACK
6
CONTINUOUS
10
173.833
20
-94.4218
11
102.723
21
-94.4218
0
LINE
8
BLACK
6
CONTINUOUS
10
102.723
20
-94.4218
11
102.718
21
-94.4223
0
LINE
8
BLACK
6
CONTINUOUS
10
102.718
20
-94.4223
11
102.713
21
-94.4218
0
LINE
8
BLACK
6
CONTINUOUS
10
102.713
20
-94.4218
11
102.698
21
-94.4204
0
LINE
8
BLACK
6
CONTINUOUS
10
102.698
20
-94.4204
11
102.68
21
-94.4146
0
LINE
8
BLACK
6
CONTINUOUS
10
102.68
20
-94.4146
11
102.662
21
-94.4053
0
LINE
8
BLACK
6
CONTINUOUS
10
102.662
20
-94.4053
11
102.647
21
-94.3929
0
LINE
8
BLACK
6
CONTINUOUS
10
102.647
20
-94.3929
11
102.634
21
-94.3776
0
LINE
8
BLACK
6
CONTINUOUS
10
102.634
20
-94.3776
11
102.625
21
-94.3603
0
LINE
8
BLACK
6
CONTINUOUS
10
102.625
20
-94.3603
11
102.619
21
-94.3414
0
LINE
8
BLACK
6
CONTINUOUS
10
102.619
20
-94.3414
11
102.618
21
-94.3218
0
LINE
8
BLACK
6
CONTINUOUS
10
102.618
20
-94.3218
11
102.618
21
-94.3169
0
LINE
8
BLACK
6
CONTINUOUS
10
102.618
20
-94.3169
11
102.618
21
-62.1449
0
LINE
8
BLACK
6
CONTINUOUS
10
102.618
20
-62.1449
11
102.618
21
-62.14
0
LINE
8
BLACK
6
CONTINUOUS
10
102.618
20
-62.14
11
102.619
21
-62.1204
0
LINE
8
BLACK
6
CONTINUOUS
10
102.619
20
-62.1204
11
102.625
21
-62.1015
0
LINE
8
BLACK
6
CONTINUOUS
10
102.625
20
-62.1015
11
102.634
21
-62.0842
0
LINE
8
BLACK
6
CONTINUOUS
10
102.634
20
-62.0842
11
102.647
21
-62.0689
0
LINE
8
BLACK
6
CONTINUOUS
10
102.647
20
-62.0689
11
102.662
21
-62.0565
0
LINE
8
BLACK
6
CONTINUOUS
10
102.662
20
-62.0565
11
102.68
21
-62.0472
0
LINE
8
BLACK
6
CONTINUOUS
10
102.68
20
-62.0472
11
102.698
21
-62.0414
0
LINE
8
BLACK
6
CONTINUOUS
10
102.698
20
-62.0414
11
102.713
21
-62.04
0
LINE
8
BLACK
6
CONTINUOUS
10
102.713
20
-62.04
11
102.718
21
-62.0395
0
LINE
8
BLACK
6
CONTINUOUS
10
102.718
20
-62.0395
11
102.723
21
-62.04
0
LINE
8
BLACK
6
CONTINUOUS
10
102.723
20
-62.04
11
113.286
21
-62.04
0
LINE
8
BLACK
6
CONTINUOUS
10
113.286
20
-62.04
11
113.286
21
-51.4769
0
LINE
8
BLACK
6
CONTINUOUS
10
113.286
20
-51.4769
11
113.286
21
-51.472
0
LINE
8
BLACK
6
CONTINUOUS
10
113.286
20
-51.472
11
113.287
21
-51.4524
0
LINE
8
BLACK
6
CONTINUOUS
10
113.287
20
-51.4524
11
113.293
21
-51.4335
0
LINE
8
BLACK
6
CONTINUOUS
10
113.293
20
-51.4335
11
113.302
21
-51.4162
0
LINE
8
BLACK
6
CONTINUOUS
10
113.302
20
-51.4162
11
113.315
21
-51.4009
0
LINE
8
BLACK
6
CONTINUOUS
10
113.315
20
-51.4009
11
113.33
21
-51.3885
0
LINE
8
BLACK
6
CONTINUOUS
10
113.33
20
-51.3885
11
113.348
21
-51.3792
0
LINE
8
BLACK
6
CONTINUOUS
10
113.348
20
-51.3792
11
113.366
21
-51.3734
0
LINE
8
BLACK
6
CONTINUOUS
10
113.366
20
-51.3734
11
113.381
21
-51.372
0
LINE
8
BLACK
6
CONTINUOUS
10
113.381
20
-51.372
11
113.386
21
-51.3715
0
LINE
8
BLACK
6
CONTINUOUS
10
113.386
20
-51.3715
11
113.391
21
-51.372
0
LINE
8
BLACK
6
CONTINUOUS
10
113.391
20
-51.372
11
163.165
21
-51.372
0
LINE
8
BLACK
6
CONTINUOUS
10
163.165
20
-51.372
11
163.17
21
-51.3715
0
LINE
8
BLACK
6
CONTINUOUS
10
163.17
20
-51.3715
11
163.175
21
-51.372
0
LINE
8
BLACK
6
CONTINUOUS
10
113.486
20
-51.572
11
113.486
21
-62.1351
0
LINE
8
BLACK
6
CONTINUOUS
10
113.486
20
-62.1351
11
113.486
21
-62.14
0
LINE
8
BLACK
6
CONTINUOUS
10
113.486
20
-62.14
11
113.485
21
-62.1596
0
LINE
8
BLACK
6
CONTINUOUS
10
113.485
20
-62.1596
11
113.479
21
-62.1785
0
LINE
8
BLACK
6
CONTINUOUS
10
113.479
20
-62.1785
11
113.47
21
-62.1958
0
LINE
8
BLACK
6
CONTINUOUS
10
113.47
20
-62.1958
11
113.457
21
-62.2111
0
LINE
8
BLACK
6
CONTINUOUS
10
113.457
20
-62.2111
11
113.442
21
-62.2235
0
LINE
8
BLACK
6
CONTINUOUS
10
113.442
20
-62.2235
11
113.424
21
-62.2328
0
LINE
8
BLACK
6
CONTINUOUS
10
113.424
20
-62.2328
11
113.406
21
-62.2386
0
LINE
8
BLACK
6
CONTINUOUS
10
113.406
20
-62.2386
11
113.391
21
-62.24
0
LINE
8
BLACK
6
CONTINUOUS
10
113.391
20
-62.24
11
113.386
21
-62.2405
0
LINE
8
BLACK
6
CONTINUOUS
10
113.386
20
-62.2405
11
113.381
21
-62.24
0
LINE
8
BLACK
6
CONTINUOUS
10
113.381
20
-62.24
11
102.818
21
-62.24
0
LINE
8
BLACK
6
CONTINUOUS
10
102.818
20
-62.24
11
102.818
21
-94.2218
0
LINE
8
BLACK
6
CONTINUOUS
10
102.818
20
-94.2218
11
173.738
21
-94.2218
0
LINE
8
BLACK
6
CONTINUOUS
10
173.738
20
-94.2218
11
173.738
21
-62.24
0
LINE
8
BLACK
6
CONTINUOUS
10
173.738
20
-62.24
11
163.175
21
-62.24
0
LINE
8
BLACK
6
CONTINUOUS
10
163.175
20
-62.24
11
163.17
21
-62.2405
0
LINE
8
BLACK
6
CONTINUOUS
10
163.17
20
-62.2405
11
163.15
21
-62.2386
0
LINE
8
BLACK
6
CONTINUOUS
10
163.15
20
-62.2386
11
163.132
21
-62.2328
0
LINE
8
BLACK
6
CONTINUOUS
10
163.132
20
-62.2328
11
163.114
21
-62.2235
0
LINE
8
BLACK
6
CONTINUOUS
10
163.114
20
-62.2235
11
163.099
21
-62.2111
0
LINE
8
BLACK
6
CONTINUOUS
10
163.099
20
-62.2111
11
163.086
21
-62.1958
0
LINE
8
BLACK
6
CONTINUOUS
10
163.086
20
-62.1958
11
163.077
21
-62.1785
0
LINE
8
BLACK
6
CONTINUOUS
10
163.077
20
-62.1785
11
163.071
21
-62.1596
0
LINE
8
BLACK
6
CONTINUOUS
10
163.071
20
-62.1596
11
163.07
21
-62.14
0
LINE
8
BLACK
6
CONTINUOUS
10
163.07
20
-62.14
11
163.07
21
-62.1351
0
LINE
8
BLACK
6
CONTINUOUS
10
163.07
20
-62.1351
11
163.07
21
-51.572
0
LINE
8
BLACK
6
CONTINUOUS
10
163.07
20
-51.572
11
113.486
21
-51.572
  0
ENDSEC
  0
EOF
